<svg width="1285" height="710" viewBox="0 0 1285 710" fill="none" xmlns="http://www.w3.org/2000/svg">
<g filter="url(#filter0_d_58_2333)">
<path d="M68.7037 3.2784C67.3833 3.36805 66.0695 3.50961 64.816 3.64645C60.0033 4.19853 55.3917 5.02901 50.9811 6.22754C48.0855 7.01083 45.1831 7.93096 42.4148 8.94546C39.6464 10.0071 37.0122 11.1585 34.512 12.3995C33.2585 12.9988 32.0051 13.6877 30.7583 14.3813C28.781 15.4383 26.9376 16.5896 25.2284 17.8825C24.3704 18.4818 23.5124 19.1235 22.6612 19.77C18.445 23.04 14.8187 26.7252 11.9901 30.6841C11.3332 31.5618 10.7366 32.4347 10.1467 33.3077C6.17859 39.5693 4.00684 46.4773 4.00684 53.7535V659.247C4.00684 665.371 5.58873 671.27 8.42408 676.701C9.61051 679.051 11.0583 681.306 12.7743 683.425C13.8937 684.897 15.0801 686.28 16.4006 687.615C18.378 689.644 20.5497 691.574 22.8555 693.372C23.6465 693.971 24.5045 694.57 25.2954 695.122C26.8773 696.321 28.5866 697.425 30.4366 698.392C31.69 699.128 32.9368 699.822 34.2573 700.464C38.145 702.398 42.2941 704.102 46.7114 705.527H46.7784C52.6435 707.367 58.9644 708.707 65.5534 709.396C69.0456 709.811 72.6719 709.995 76.2915 709.995H371.61V710H420.126C420.126 710 420.126 710 420.126 709.995H1211.09C1249.57 709.995 1280.67 688.209 1280.67 661.361V643.307V475.758V303.236V285.504L1281 284.168C1280.93 284.079 1280.87 283.984 1280.67 283.89V251.558V218.443V51.6348C1280.67 43.7594 1278.04 36.3465 1273.22 29.7593C1261.83 13.9142 1238.3 3 1211.09 3H729.87H658.249H76.2848C73.7109 3 71.2106 3.08965 68.7037 3.2784Z" fill="#D1E3FF"/>
</g>
<defs>
<filter id="filter0_d_58_2333" x="0.00683594" y="0" width="1284.99" height="715" filterUnits="userSpaceOnUse" color-interpolation-filters="sRGB">
<feFlood flood-opacity="0" result="BackgroundImageFix"/>
<feColorMatrix in="SourceAlpha" type="matrix" values="0 0 0 0 0 0 0 0 0 0 0 0 0 0 0 0 0 0 127 0" result="hardAlpha"/>
<feOffset dy="1"/>
<feGaussianBlur stdDeviation="2"/>
<feColorMatrix type="matrix" values="0 0 0 0 0 0 0 0 0 0 0 0 0 0 0 0 0 0 0.1 0"/>
<feBlend mode="normal" in2="BackgroundImageFix" result="effect1_dropShadow_58_2333"/>
<feBlend mode="normal" in="SourceGraphic" in2="effect1_dropShadow_58_2333" result="shape"/>
</filter>
</defs>
</svg>
